<svg width="100%" height="100%" viewBox="0 0 137 84" fill="none" xmlns="http://www.w3.org/2000/svg" preserveAspectRatio="none"><path d="M73 44.1682H75.7867V46.9283H73V44.1682ZM73 48.8718H75.7867V62.6407H73V48.8718Z" fill="#221C35" data-color-group="0"/><path d="M78.8631 44.3703H81.6499V54.6329H81.7048L85.9124 48.8718L89.1466 48.8485L84.9626 54.1742L89.6882 62.6407H86.6424L83.2277 56.3743L81.6499 58.2636V62.6407H78.8631V44.3703Z" fill="#221C35" data-color-group="0"/><path d="M98.1899 61.0314H98.1114C97.7512 61.6467 97.2299 62.1542 96.6026 62.5004C95.9754 62.8466 95.2654 63.0187 94.5475 62.9984C92.483 62.9984 91.0856 62.0576 91.0856 58.4969V48.8719H93.8724V58.7535C93.8724 60.3084 94.571 60.7981 95.7642 60.7981C96.0735 60.8125 96.3822 60.7614 96.6699 60.648C96.9574 60.5347 97.2174 60.3619 97.4322 60.1411C97.647 59.9202 97.8116 59.6566 97.9152 59.3676C98.0188 59.0788 98.059 58.7712 98.0329 58.4658V48.8719H100.827V62.6407H98.1899V61.0314Z" fill="#221C35" data-color-group="0"/><path d="M80.6448 37.5832H80.5978C80.3949 38.2143 79.9834 38.7595 79.4293 39.1303C78.8754 39.5013 78.2114 39.6766 77.5446 39.6279C74.295 39.6279 73 36.9379 73 32.2032C73 26.0924 75.1742 25.1439 77.2855 25.1439C77.9494 25.1135 78.6065 25.2859 79.168 25.6377C79.7296 25.9895 80.1685 26.5038 80.4252 27.1108H80.4801V21H83.29V39.2702H80.6448V37.5832ZM78.1175 27.3441C76.5477 27.3441 75.9433 28.6269 75.9433 32.3354C75.9433 35.4452 76.3593 37.4277 78.2981 37.4277C80.2368 37.4277 80.6528 35.4841 80.6528 32.5375C80.6528 29.2411 80.2682 27.3441 78.1253 27.3441" fill="#221C35" data-color-group="0"/><path d="M95.3464 36.4012C95.3464 36.9142 95.6604 37.3729 96.0764 37.3729C96.2338 37.3789 96.391 37.3551 96.5394 37.303V39.0912C96.1114 39.2997 95.6427 39.4138 95.1659 39.4254C93.9257 39.4254 92.8975 38.9357 92.8113 37.6062H92.7563C92.4472 38.2455 91.953 38.7792 91.3365 39.1393C90.72 39.4992 90.0093 39.6693 89.2949 39.6275C87.0736 39.6275 85.6765 38.3992 85.6765 35.7403C85.6765 32.6693 87.0187 32.0318 88.9103 31.4176L91.0766 30.8267C92.0892 30.5468 92.7091 30.267 92.7091 29.0619C92.7091 27.8568 92.2776 27.0327 90.8019 27.0327C88.9417 27.0327 88.6827 28.3388 88.6827 29.6761H86.0455C86.0455 26.7528 87.262 25.1435 90.9354 25.1435C93.3842 25.1435 95.3464 26.092 95.3464 28.5177V36.4012ZM92.7091 32.0007C91.9793 32.5682 90.4329 32.8948 89.5696 33.2835C89.1801 33.5022 88.8645 33.8298 88.662 34.2253C88.4596 34.6208 88.3794 35.0666 88.4316 35.507C88.4316 36.6576 88.9966 37.5829 90.1583 37.5829C91.8379 37.5829 92.6699 36.3234 92.6699 34.302L92.7091 32.0007Z" fill="#221C35" data-color-group="0"/><path d="M97.2067 25.5014H99.1219V21.6141H101.908V25.5014H104.185V27.5461H101.908V35.7639C101.908 36.8368 102.222 37.2256 103.18 37.2256C103.516 37.2288 103.853 37.2029 104.185 37.1477V39.1924C103.449 39.3621 102.695 39.4405 101.94 39.4257C100.048 39.4257 99.1219 38.9125 99.1219 36.0982V27.5461H97.2067V25.5014Z" fill="#221C35" data-color-group="0"/><path d="M114.67 36.2809C114.67 36.7941 114.984 37.2527 115.4 37.2527C115.557 37.2586 115.714 37.2348 115.863 37.1828V38.9711C115.435 39.1795 114.966 39.2937 114.489 39.3053C113.249 39.3053 112.221 38.8154 112.135 37.486H112.08C111.771 38.1254 111.276 38.6591 110.66 39.0191C110.044 39.3791 109.333 39.5492 108.618 39.5074C106.397 39.5074 105 38.2791 105 35.6201C105 32.5492 106.342 31.9116 108.234 31.2974L110.4 30.7066C111.413 30.4267 112.033 30.1468 112.033 28.9417C112.033 27.7367 111.593 26.8892 110.118 26.8892C108.257 26.8892 107.998 28.1954 107.998 29.5326H105.361C105.361 26.6093 106.578 25 110.251 25C112.7 25 114.662 25.9485 114.662 28.3742L114.67 36.2809ZM112.04 31.8805C111.311 32.4481 109.764 32.7746 108.901 33.1633C108.511 33.382 108.196 33.7096 107.993 34.1051C107.791 34.5006 107.711 34.9465 107.763 35.3869C107.763 36.5375 108.328 37.4627 109.49 37.4627C111.169 37.4627 112.001 36.2032 112.001 34.1818L112.04 31.8805Z" fill="#221C35" data-color-group="0"/><path fill-rule="evenodd" clip-rule="evenodd" d="M30.333 24.5408C33.7865 22.2333 37.8466 21.0017 42 21.0017C47.5695 21.0017 52.911 23.2142 56.8492 27.1524C60.7875 31.0907 63 36.4321 63 42.0016C63 46.155 61.7684 50.2152 59.4608 53.6686C57.1533 57.122 53.8736 59.8137 50.0364 61.4032C46.1991 62.9925 41.9767 63.4085 37.9031 62.5982C33.8295 61.7878 30.0877 59.7877 27.1508 56.8508C24.2139 53.9139 22.2138 50.1722 21.4035 46.0985C20.5932 42.0249 21.0091 37.8026 22.5985 33.9653C24.188 30.1281 26.8796 26.8483 30.333 24.5408ZM42.8866 47.8817H53.441V46.2483H42.8866V47.8817ZM51.8156 36.0672C51.4266 33.5239 52.15 32.575 52.15 32.575L53.5344 30.8795L51.9788 31.315C51.6083 30.7159 51.0453 30.2603 50.382 30.0228C49.7187 29.7853 48.9945 29.78 48.3278 30.0076C47.6611 30.2353 47.0914 30.6824 46.712 31.276C46.3325 31.8696 46.1658 32.5743 46.2389 33.275L29.3533 54.0961C29.3533 54.0961 29.4233 54.3994 29.68 54.2672C29.9489 54.1201 30.6215 53.4402 32.6411 51.3986C33.7177 50.3103 35.1771 48.835 37.1622 46.8473C39.0911 44.9183 42.3033 45.0816 42.3033 45.0816H45.5933C50.0266 45.0816 52.5311 40.835 51.8156 36.0672ZM48.8854 31.6286C49.0233 31.5381 49.1849 31.4906 49.3499 31.4922C49.5692 31.4942 49.7789 31.5828 49.9332 31.7386C50.0877 31.8945 50.1742 32.105 50.1742 32.3244C50.1742 32.4893 50.1252 32.6505 50.0334 32.7875C49.9417 32.9246 49.8112 33.0312 49.6587 33.094C49.5061 33.1567 49.3385 33.1727 49.1769 33.14C49.0151 33.1072 48.8669 33.0272 48.7508 32.9101C48.6348 32.7929 48.5562 32.6439 48.525 32.4819C48.4937 32.32 48.5113 32.1524 48.5754 32.0005C48.6397 31.8486 48.7476 31.7191 48.8854 31.6286Z" fill="#221C35" data-color-group="0"/></svg>